<svg width="131" height="11" viewBox="0 0 131 11" fill="none" xmlns="http://www.w3.org/2000/svg">
<path d="M4.93839 1.27273H6.76225V7.35795C6.76225 7.92045 6.63583 8.40909 6.38299 8.82386C6.13299 9.23864 5.78498 9.55824 5.33896 9.78267C4.89293 10.0071 4.37447 10.1193 3.78356 10.1193C3.25799 10.1193 2.78072 10.027 2.35174 9.84233C1.9256 9.65483 1.58754 9.37074 1.33754 8.99006C1.08754 8.60653 0.963956 8.125 0.966797 7.54545H2.80344C2.80913 7.77557 2.856 7.97301 2.94407 8.13778C3.03498 8.29972 3.15856 8.42472 3.31481 8.51278C3.4739 8.59801 3.6614 8.64062 3.87731 8.64062C4.10458 8.64062 4.29634 8.59233 4.45259 8.49574C4.61168 8.39631 4.73242 8.25142 4.81481 8.06108C4.89719 7.87074 4.93839 7.63636 4.93839 7.35795V1.27273ZM11.2111 10.1278C10.5492 10.1278 9.97674 9.98722 9.49379 9.70597C9.01367 9.42187 8.64293 9.02699 8.38157 8.52131C8.12021 8.01278 7.98952 7.4233 7.98952 6.75284C7.98952 6.0767 8.12021 5.4858 8.38157 4.98011C8.64293 4.47159 9.01367 4.0767 9.49379 3.79545C9.97674 3.51136 10.5492 3.36932 11.2111 3.36932C11.873 3.36932 12.4441 3.51136 12.9242 3.79545C13.4071 4.0767 13.7793 4.47159 14.0407 4.98011C14.302 5.4858 14.4327 6.0767 14.4327 6.75284C14.4327 7.4233 14.302 8.01278 14.0407 8.52131C13.7793 9.02699 13.4071 9.42187 12.9242 9.70597C12.4441 9.98722 11.873 10.1278 11.2111 10.1278ZM11.2196 8.72159C11.5208 8.72159 11.7722 8.63636 11.9739 8.46591C12.1756 8.29261 12.3276 8.05682 12.4299 7.75852C12.535 7.46023 12.5875 7.12074 12.5875 6.74006C12.5875 6.35938 12.535 6.01989 12.4299 5.72159C12.3276 5.4233 12.1756 5.1875 11.9739 5.0142C11.7722 4.84091 11.5208 4.75426 11.2196 4.75426C10.9157 4.75426 10.66 4.84091 10.4526 5.0142C10.248 5.1875 10.0932 5.4233 9.9881 5.72159C9.88583 6.01989 9.83469 6.35938 9.83469 6.74006C9.83469 7.12074 9.88583 7.46023 9.9881 7.75852C10.0932 8.05682 10.248 8.29261 10.4526 8.46591C10.66 8.63636 10.9157 8.72159 11.2196 8.72159ZM17.4796 10.1236C17.062 10.1236 16.6898 10.0511 16.3631 9.90625C16.0364 9.75852 15.7779 9.54119 15.5875 9.25426C15.4 8.96449 15.3063 8.60369 15.3063 8.17188C15.3063 7.80824 15.373 7.50284 15.5066 7.25568C15.6401 7.00852 15.8219 6.80966 16.052 6.65909C16.2821 6.50852 16.5435 6.39489 16.8361 6.31818C17.1316 6.24148 17.4412 6.1875 17.7651 6.15625C18.1458 6.11648 18.4526 6.07955 18.6855 6.04545C18.9185 6.00852 19.0875 5.95455 19.1926 5.88352C19.2978 5.8125 19.3503 5.70739 19.3503 5.56818V5.54261C19.3503 5.27273 19.2651 5.06392 19.0946 4.91619C18.927 4.76847 18.6884 4.6946 18.3787 4.6946C18.052 4.6946 17.7921 4.76705 17.5989 4.91193C17.4057 5.05398 17.2779 5.23295 17.2154 5.44886L15.5364 5.3125C15.6216 4.91477 15.7892 4.57102 16.0392 4.28125C16.2892 3.98864 16.6117 3.7642 17.0066 3.60795C17.4043 3.44886 17.8645 3.36932 18.3873 3.36932C18.7509 3.36932 19.0989 3.41193 19.4313 3.49716C19.7665 3.58239 20.0634 3.71449 20.3219 3.89347C20.5833 4.07244 20.7892 4.30256 20.9398 4.58381C21.0904 4.86222 21.1657 5.19602 21.1657 5.58523V10H19.4441V9.09233H19.3929C19.2878 9.29688 19.1472 9.47727 18.9711 9.63352C18.7949 9.78693 18.5833 9.90767 18.3361 9.99574C18.089 10.081 17.8034 10.1236 17.4796 10.1236ZM17.9995 8.87074C18.2665 8.87074 18.5023 8.81818 18.7069 8.71307C18.9114 8.60511 19.0719 8.46023 19.1884 8.27841C19.3049 8.09659 19.3631 7.89062 19.3631 7.66051V6.96591C19.3063 7.00284 19.2282 7.03693 19.1287 7.06818C19.0321 7.09659 18.9228 7.12358 18.8006 7.14915C18.6784 7.17187 18.5563 7.19318 18.4341 7.21307C18.312 7.23011 18.2012 7.24574 18.1017 7.25994C17.8887 7.29119 17.7026 7.34091 17.5435 7.40909C17.3844 7.47727 17.2608 7.5696 17.1728 7.68608C17.0847 7.79972 17.0407 7.94176 17.0407 8.11222C17.0407 8.35938 17.1301 8.5483 17.3091 8.67898C17.4909 8.80682 17.7211 8.87074 17.9995 8.87074ZM17.2367 2.64915L16.2267 2.63636C16.2267 2.09375 16.3603 1.67756 16.6273 1.38778C16.8972 1.09801 17.2253 0.951705 17.6117 0.948864C17.8105 0.948864 17.981 0.981534 18.123 1.04688C18.2679 1.10938 18.3972 1.18324 18.5108 1.26847C18.6273 1.35369 18.7381 1.42898 18.8432 1.49432C18.9483 1.55682 19.062 1.58807 19.1841 1.58807C19.3489 1.58523 19.4739 1.52415 19.5591 1.40483C19.6472 1.28267 19.6912 1.12358 19.6912 0.927557L20.6841 0.957386C20.6784 1.49432 20.5421 1.90909 20.275 2.2017C20.008 2.49148 19.6827 2.63778 19.2992 2.64062C19.0861 2.64062 18.9071 2.60938 18.7623 2.54688C18.6202 2.48153 18.4952 2.40767 18.3873 2.32528C18.2793 2.24006 18.1742 2.16477 18.0719 2.09943C17.9696 2.03409 17.8546 2.00142 17.7267 2.00142C17.579 2.00142 17.4597 2.05966 17.3688 2.17614C17.2807 2.29261 17.2367 2.45028 17.2367 2.64915ZM25.5314 10.1278C24.8695 10.1278 24.2971 9.98722 23.8141 9.70597C23.334 9.42187 22.9632 9.02699 22.7019 8.52131C22.4405 8.01278 22.3098 7.4233 22.3098 6.75284C22.3098 6.0767 22.4405 5.4858 22.7019 4.98011C22.9632 4.47159 23.334 4.0767 23.8141 3.79545C24.2971 3.51136 24.8695 3.36932 25.5314 3.36932C26.1934 3.36932 26.7644 3.51136 27.2445 3.79545C27.7275 4.0767 28.0996 4.47159 28.361 4.98011C28.6223 5.4858 28.753 6.0767 28.753 6.75284C28.753 7.4233 28.6223 8.01278 28.361 8.52131C28.0996 9.02699 27.7275 9.42187 27.2445 9.70597C26.7644 9.98722 26.1934 10.1278 25.5314 10.1278ZM25.54 8.72159C25.8411 8.72159 26.0925 8.63636 26.2942 8.46591C26.4959 8.29261 26.6479 8.05682 26.7502 7.75852C26.8553 7.46023 26.9078 7.12074 26.9078 6.74006C26.9078 6.35938 26.8553 6.01989 26.7502 5.72159C26.6479 5.4233 26.4959 5.1875 26.2942 5.0142C26.0925 4.84091 25.8411 4.75426 25.54 4.75426C25.236 4.75426 24.9803 4.84091 24.7729 5.0142C24.5684 5.1875 24.4135 5.4233 24.3084 5.72159C24.2061 6.01989 24.155 6.35938 24.155 6.74006C24.155 7.12074 24.2061 7.46023 24.3084 7.75852C24.4135 8.05682 24.5684 8.29261 24.7729 8.46591C24.9803 8.63636 25.236 8.72159 25.54 8.72159ZM38.5318 4.09375C38.4721 3.88636 38.3883 3.70312 38.2804 3.54403C38.1724 3.3821 38.0403 3.24574 37.8841 3.13494C37.7306 3.02131 37.5545 2.93466 37.3556 2.875C37.1596 2.81534 36.9423 2.78551 36.7037 2.78551C36.2576 2.78551 35.8656 2.89631 35.5275 3.1179C35.1923 3.33949 34.9309 3.66193 34.7434 4.08523C34.5559 4.50568 34.4622 5.01989 34.4622 5.62784C34.4622 6.2358 34.5545 6.75284 34.7392 7.17898C34.9238 7.60511 35.1852 7.9304 35.5233 8.15483C35.8613 8.37642 36.2605 8.48722 36.7207 8.48722C37.1383 8.48722 37.4949 8.41335 37.7903 8.26562C38.0886 8.11506 38.3159 7.90341 38.4721 7.63068C38.6312 7.35795 38.7108 7.03551 38.7108 6.66335L39.0858 6.71875H36.8358V5.32955H40.4877V6.42898C40.4877 7.19602 40.3258 7.85511 40.002 8.40625C39.6781 8.95455 39.2321 9.37784 38.6639 9.67614C38.0957 9.97159 37.4451 10.1193 36.7122 10.1193C35.894 10.1193 35.1752 9.93892 34.5559 9.57812C33.9366 9.21449 33.4537 8.69886 33.1071 8.03125C32.7633 7.3608 32.5914 6.56534 32.5914 5.64489C32.5914 4.9375 32.6937 4.30682 32.8983 3.75284C33.1056 3.19602 33.3954 2.72443 33.7676 2.33807C34.1397 1.9517 34.573 1.65767 35.0673 1.45597C35.5616 1.25426 36.0971 1.15341 36.6738 1.15341C37.1681 1.15341 37.6284 1.22585 38.0545 1.37074C38.4806 1.51278 38.8585 1.71449 39.188 1.97585C39.5204 2.23722 39.7917 2.5483 40.002 2.90909C40.2122 3.26705 40.3471 3.66193 40.4068 4.09375H38.5318ZM43.7061 10.1236C43.2885 10.1236 42.9164 10.0511 42.5897 9.90625C42.263 9.75852 42.0044 9.54119 41.8141 9.25426C41.6266 8.96449 41.5328 8.60369 41.5328 8.17188C41.5328 7.80824 41.5996 7.50284 41.7331 7.25568C41.8667 7.00852 42.0485 6.80966 42.2786 6.65909C42.5087 6.50852 42.7701 6.39489 43.0627 6.31818C43.3581 6.24148 43.6678 6.1875 43.9917 6.15625C44.3723 6.11648 44.6792 6.07955 44.9121 6.04545C45.1451 6.00852 45.3141 5.95455 45.4192 5.88352C45.5243 5.8125 45.5769 5.70739 45.5769 5.56818V5.54261C45.5769 5.27273 45.4917 5.06392 45.3212 4.91619C45.1536 4.76847 44.915 4.6946 44.6053 4.6946C44.2786 4.6946 44.0186 4.76705 43.8255 4.91193C43.6323 5.05398 43.5044 5.23295 43.4419 5.44886L41.763 5.3125C41.8482 4.91477 42.0158 4.57102 42.2658 4.28125C42.5158 3.98864 42.8382 3.7642 43.2331 3.60795C43.6309 3.44886 44.0911 3.36932 44.6138 3.36932C44.9775 3.36932 45.3255 3.41193 45.6578 3.49716C45.9931 3.58239 46.29 3.71449 46.5485 3.89347C46.8098 4.07244 47.0158 4.30256 47.1664 4.58381C47.3169 4.86222 47.3922 5.19602 47.3922 5.58523V10H45.6706V9.09233H45.6195C45.5144 9.29688 45.3738 9.47727 45.1976 9.63352C45.0215 9.78693 44.8098 9.90767 44.5627 9.99574C44.3155 10.081 44.03 10.1236 43.7061 10.1236ZM44.226 8.87074C44.4931 8.87074 44.7289 8.81818 44.9334 8.71307C45.138 8.60511 45.2985 8.46023 45.415 8.27841C45.5314 8.09659 45.5897 7.89062 45.5897 7.66051V6.96591C45.5328 7.00284 45.4547 7.03693 45.3553 7.06818C45.2587 7.09659 45.1493 7.12358 45.0272 7.14915C44.905 7.17187 44.7828 7.19318 44.6607 7.21307C44.5385 7.23011 44.4277 7.24574 44.3283 7.25994C44.1152 7.29119 43.9292 7.34091 43.7701 7.40909C43.611 7.47727 43.4874 7.5696 43.3993 7.68608C43.3113 7.79972 43.2672 7.94176 43.2672 8.11222C43.2672 8.35938 43.3567 8.5483 43.5357 8.67898C43.7175 8.80682 43.9476 8.87074 44.226 8.87074ZM48.8347 10V1.27273H50.65V4.55398H50.7054C50.785 4.37784 50.9 4.19886 51.0506 4.01705C51.204 3.83239 51.4029 3.67898 51.6472 3.55682C51.8944 3.43182 52.2012 3.36932 52.5676 3.36932C53.0449 3.36932 53.4853 3.49432 53.8887 3.74432C54.2921 3.99148 54.6145 4.36506 54.856 4.86506C55.0975 5.36222 55.2182 5.9858 55.2182 6.7358C55.2182 7.46591 55.1003 8.08239 54.8645 8.58523C54.6316 9.08523 54.3134 9.46449 53.91 9.72301C53.5094 9.97869 53.0605 10.1065 52.5634 10.1065C52.2111 10.1065 51.9114 10.0483 51.6642 9.93182C51.4199 9.81534 51.2196 9.66903 51.0634 9.4929C50.9071 9.31392 50.7878 9.13352 50.7054 8.9517H50.6245V10H48.8347ZM50.6117 6.72727C50.6117 7.11648 50.6657 7.45597 50.7736 7.74574C50.8816 8.03551 51.0378 8.26136 51.2424 8.4233C51.4469 8.58239 51.6955 8.66193 51.9881 8.66193C52.2836 8.66193 52.5336 8.58097 52.7381 8.41903C52.9426 8.25426 53.0975 8.02699 53.2026 7.73722C53.3105 7.4446 53.3645 7.10795 53.3645 6.72727C53.3645 6.34943 53.312 6.01705 53.2069 5.73011C53.1017 5.44318 52.9469 5.21875 52.7424 5.05682C52.5378 4.89489 52.2864 4.81392 51.9881 4.81392C51.6926 4.81392 51.4426 4.89205 51.2381 5.0483C51.0364 5.20455 50.8816 5.42614 50.7736 5.71307C50.6657 6 50.6117 6.33807 50.6117 6.72727ZM56.4295 10V3.45455H58.1895V4.59659H58.2576C58.377 4.19034 58.5772 3.88352 58.8585 3.67614C59.1397 3.46591 59.4636 3.3608 59.8301 3.3608C59.921 3.3608 60.019 3.36648 60.1241 3.37784C60.2292 3.3892 60.3216 3.40483 60.4011 3.42472V5.03551C60.3159 5.00994 60.198 4.98722 60.0474 4.96733C59.8968 4.94744 59.7591 4.9375 59.6341 4.9375C59.367 4.9375 59.1284 4.99574 58.9181 5.11222C58.7108 5.22585 58.546 5.38494 58.4238 5.58949C58.3045 5.79403 58.2449 6.02983 58.2449 6.29688V10H56.4295ZM61.3397 10V3.45455H63.155V10H61.3397ZM62.2516 2.6108C61.9817 2.6108 61.7502 2.52131 61.557 2.34233C61.3667 2.16051 61.2715 1.94318 61.2715 1.69034C61.2715 1.44034 61.3667 1.22585 61.557 1.04688C61.7502 0.865057 61.9817 0.774147 62.2516 0.774147C62.5215 0.774147 62.7516 0.865057 62.9419 1.04688C63.1351 1.22585 63.2317 1.44034 63.2317 1.69034C63.2317 1.94318 63.1351 2.16051 62.9419 2.34233C62.7516 2.52131 62.5215 2.6108 62.2516 2.6108ZM67.5922 10.1278C66.9189 10.1278 66.3393 9.99148 65.8535 9.71875C65.3706 9.44318 64.9984 9.05398 64.737 8.55114C64.4757 8.04545 64.345 7.44744 64.345 6.7571C64.345 6.08381 64.4757 5.4929 64.737 4.98438C64.9984 4.47585 65.3663 4.07955 65.8407 3.79545C66.318 3.51136 66.8777 3.36932 67.5197 3.36932C67.9515 3.36932 68.3535 3.43892 68.7257 3.57812C69.1007 3.71449 69.4274 3.92045 69.7058 4.19602C69.987 4.47159 70.2058 4.81818 70.362 5.2358C70.5183 5.65057 70.5964 6.13636 70.5964 6.69318V7.19176H65.0694V6.06676H68.8876C68.8876 5.8054 68.8308 5.57386 68.7172 5.37216C68.6035 5.17045 68.4458 5.01278 68.2441 4.89915C68.0453 4.78267 67.8137 4.72443 67.5495 4.72443C67.274 4.72443 67.0297 4.78835 66.8166 4.91619C66.6064 5.04119 66.4416 5.21023 66.3223 5.4233C66.2029 5.63352 66.1419 5.8679 66.139 6.12642V7.19602C66.139 7.51989 66.1987 7.79972 66.318 8.03551C66.4402 8.27131 66.612 8.45312 66.8336 8.58097C67.0552 8.70881 67.318 8.77273 67.622 8.77273C67.8237 8.77273 68.0083 8.74432 68.176 8.6875C68.3436 8.63068 68.487 8.54545 68.6064 8.43182C68.7257 8.31818 68.8166 8.17898 68.8791 8.0142L70.5581 8.125C70.4728 8.52841 70.2981 8.88068 70.0339 9.18182C69.7725 9.48011 69.4345 9.71307 69.0197 9.88068C68.6078 10.0455 68.1319 10.1278 67.5922 10.1278ZM73.5964 1.27273V10H71.7811V1.27273H73.5964ZM80.2399 10.1065C79.7427 10.1065 79.2924 9.97869 78.889 9.72301C78.4885 9.46449 78.1703 9.08523 77.9345 8.58523C77.7015 8.08239 77.585 7.46591 77.585 6.7358C77.585 5.9858 77.7058 5.36222 77.9473 4.86506C78.1887 4.36506 78.5098 3.99148 78.9103 3.74432C79.3137 3.49432 79.7555 3.36932 80.2356 3.36932C80.6021 3.36932 80.9075 3.43182 81.1518 3.55682C81.399 3.67898 81.5978 3.83239 81.7484 4.01705C81.9018 4.19886 82.0183 4.37784 82.0978 4.55398H82.1532V1.27273H83.9643V10H82.1745V8.9517H82.0978C82.0126 9.13352 81.8919 9.31392 81.7356 9.4929C81.5822 9.66903 81.3819 9.81534 81.1348 9.93182C80.8904 10.0483 80.5922 10.1065 80.2399 10.1065ZM80.8152 8.66193C81.1078 8.66193 81.3549 8.58239 81.5566 8.4233C81.7612 8.26136 81.9174 8.03551 82.0254 7.74574C82.1362 7.45597 82.1916 7.11648 82.1916 6.72727C82.1916 6.33807 82.1376 6 82.0297 5.71307C81.9217 5.42614 81.7654 5.20455 81.5609 5.0483C81.3564 4.89205 81.1078 4.81392 80.8152 4.81392C80.5169 4.81392 80.2654 4.89489 80.0609 5.05682C79.8564 5.21875 79.7015 5.44318 79.5964 5.73011C79.4913 6.01705 79.4387 6.34943 79.4387 6.72727C79.4387 7.10795 79.4913 7.4446 79.5964 7.73722C79.7044 8.02699 79.8592 8.25426 80.0609 8.41903C80.2654 8.58097 80.5169 8.66193 80.8152 8.66193ZM88.4398 10.1278C87.7665 10.1278 87.187 9.99148 86.7012 9.71875C86.2182 9.44318 85.8461 9.05398 85.5847 8.55114C85.3233 8.04545 85.1926 7.44744 85.1926 6.7571C85.1926 6.08381 85.3233 5.4929 85.5847 4.98438C85.8461 4.47585 86.214 4.07955 86.6884 3.79545C87.1657 3.51136 87.7253 3.36932 88.3674 3.36932C88.7992 3.36932 89.2012 3.43892 89.5733 3.57812C89.9483 3.71449 90.275 3.92045 90.5534 4.19602C90.8347 4.47159 91.0534 4.81818 91.2097 5.2358C91.3659 5.65057 91.4441 6.13636 91.4441 6.69318V7.19176H85.9171V6.06676H89.7353C89.7353 5.8054 89.6784 5.57386 89.5648 5.37216C89.4512 5.17045 89.2935 5.01278 89.0918 4.89915C88.8929 4.78267 88.6614 4.72443 88.3972 4.72443C88.1216 4.72443 87.8773 4.78835 87.6642 4.91619C87.454 5.04119 87.2892 5.21023 87.1699 5.4233C87.0506 5.63352 86.9895 5.8679 86.9867 6.12642V7.19602C86.9867 7.51989 87.0463 7.79972 87.1657 8.03551C87.2878 8.27131 87.4597 8.45312 87.6813 8.58097C87.9029 8.70881 88.1657 8.77273 88.4696 8.77273C88.6713 8.77273 88.856 8.74432 89.0236 8.6875C89.1912 8.63068 89.3347 8.54545 89.454 8.43182C89.5733 8.31818 89.6642 8.17898 89.7267 8.0142L91.4057 8.125C91.3205 8.52841 91.1458 8.88068 90.8816 9.18182C90.6202 9.48011 90.2821 9.71307 89.8674 9.88068C89.4554 10.0455 88.9796 10.1278 88.4398 10.1278ZM95.4402 1.27273H97.7157L100.119 7.13636H100.221L102.625 1.27273H104.9V10H103.111V4.3196H103.038L100.78 9.95739H99.5609L97.3024 4.2983H97.2299V10H95.4402V1.27273ZM108.253 10.1236C107.835 10.1236 107.463 10.0511 107.137 9.90625C106.81 9.75852 106.551 9.54119 106.361 9.25426C106.173 8.96449 106.08 8.60369 106.08 8.17188C106.08 7.80824 106.146 7.50284 106.28 7.25568C106.414 7.00852 106.595 6.80966 106.825 6.65909C107.056 6.50852 107.317 6.39489 107.61 6.31818C107.905 6.24148 108.215 6.1875 108.539 6.15625C108.919 6.11648 109.226 6.07955 109.459 6.04545C109.692 6.00852 109.861 5.95455 109.966 5.88352C110.071 5.8125 110.124 5.70739 110.124 5.56818V5.54261C110.124 5.27273 110.039 5.06392 109.868 4.91619C109.7 4.76847 109.462 4.6946 109.152 4.6946C108.825 4.6946 108.566 4.76705 108.372 4.91193C108.179 5.05398 108.051 5.23295 107.989 5.44886L106.31 5.3125C106.395 4.91477 106.563 4.57102 106.813 4.28125C107.063 3.98864 107.385 3.7642 107.78 3.60795C108.178 3.44886 108.638 3.36932 109.161 3.36932C109.524 3.36932 109.872 3.41193 110.205 3.49716C110.54 3.58239 110.837 3.71449 111.095 3.89347C111.357 4.07244 111.563 4.30256 111.713 4.58381C111.864 4.86222 111.939 5.19602 111.939 5.58523V10H110.218V9.09233H110.166C110.061 9.29688 109.921 9.47727 109.744 9.63352C109.568 9.78693 109.357 9.90767 109.11 9.99574C108.862 10.081 108.577 10.1236 108.253 10.1236ZM108.773 8.87074C109.04 8.87074 109.276 8.81818 109.48 8.71307C109.685 8.60511 109.845 8.46023 109.962 8.27841C110.078 8.09659 110.137 7.89062 110.137 7.66051V6.96591C110.08 7.00284 110.002 7.03693 109.902 7.06818C109.806 7.09659 109.696 7.12358 109.574 7.14915C109.452 7.17187 109.33 7.19318 109.208 7.21307C109.085 7.23011 108.975 7.24574 108.875 7.25994C108.662 7.29119 108.476 7.34091 108.317 7.40909C108.158 7.47727 108.034 7.5696 107.946 7.68608C107.858 7.79972 107.814 7.94176 107.814 8.11222C107.814 8.35938 107.904 8.5483 108.083 8.67898C108.264 8.80682 108.494 8.87074 108.773 8.87074ZM116.829 3.45455V4.81818H112.887V3.45455H116.829ZM113.782 1.88636H115.597V7.98864C115.597 8.15625 115.623 8.28693 115.674 8.38068C115.725 8.47159 115.796 8.53551 115.887 8.57244C115.981 8.60937 116.089 8.62784 116.211 8.62784C116.296 8.62784 116.382 8.62074 116.467 8.60653C116.552 8.58949 116.617 8.5767 116.663 8.56818L116.948 9.91903C116.857 9.94744 116.73 9.98011 116.565 10.017C116.4 10.0568 116.2 10.081 115.964 10.0895C115.526 10.1065 115.143 10.0483 114.813 9.91477C114.487 9.78125 114.232 9.57386 114.051 9.29261C113.869 9.01136 113.779 8.65625 113.782 8.22727V1.88636ZM120.899 10.1278C120.237 10.1278 119.664 9.98722 119.181 9.70597C118.701 9.42187 118.33 9.02699 118.069 8.52131C117.808 8.01278 117.677 7.4233 117.677 6.75284C117.677 6.0767 117.808 5.4858 118.069 4.98011C118.33 4.47159 118.701 4.0767 119.181 3.79545C119.664 3.51136 120.237 3.36932 120.899 3.36932C121.561 3.36932 122.132 3.51136 122.612 3.79545C123.095 4.0767 123.467 4.47159 123.728 4.98011C123.99 5.4858 124.12 6.0767 124.12 6.75284C124.12 7.4233 123.99 8.01278 123.728 8.52131C123.467 9.02699 123.095 9.42187 122.612 9.70597C122.132 9.98722 121.561 10.1278 120.899 10.1278ZM120.907 8.72159C121.208 8.72159 121.46 8.63636 121.661 8.46591C121.863 8.29261 122.015 8.05682 122.117 7.75852C122.222 7.46023 122.275 7.12074 122.275 6.74006C122.275 6.35938 122.222 6.01989 122.117 5.72159C122.015 5.4233 121.863 5.1875 121.661 5.0142C121.46 4.84091 121.208 4.75426 120.907 4.75426C120.603 4.75426 120.347 4.84091 120.14 5.0142C119.936 5.1875 119.781 5.4233 119.676 5.72159C119.573 6.01989 119.522 6.35938 119.522 6.74006C119.522 7.12074 119.573 7.46023 119.676 7.75852C119.781 8.05682 119.936 8.29261 120.14 8.46591C120.347 8.63636 120.603 8.72159 120.907 8.72159ZM130.747 5.32102L129.085 5.4233C129.056 5.28125 128.995 5.15341 128.901 5.03977C128.808 4.9233 128.684 4.83097 128.531 4.76278C128.38 4.69176 128.2 4.65625 127.99 4.65625C127.708 4.65625 127.471 4.71591 127.278 4.83523C127.085 4.9517 126.988 5.10795 126.988 5.30398C126.988 5.46023 127.051 5.59233 127.176 5.70028C127.301 5.80824 127.515 5.89489 127.819 5.96023L129.004 6.19886C129.64 6.32955 130.115 6.53977 130.427 6.82955C130.74 7.11932 130.896 7.5 130.896 7.97159C130.896 8.40057 130.769 8.77699 130.517 9.10085C130.267 9.42472 129.923 9.67756 129.485 9.85938C129.051 10.0384 128.549 10.1278 127.981 10.1278C127.115 10.1278 126.424 9.94744 125.91 9.58665C125.399 9.22301 125.099 8.72869 125.011 8.10369L126.796 8.00994C126.85 8.27415 126.981 8.47585 127.188 8.61506C127.396 8.75142 127.661 8.8196 127.985 8.8196C128.303 8.8196 128.559 8.75852 128.752 8.63636C128.948 8.51136 129.048 8.35085 129.051 8.15483C129.048 7.99006 128.978 7.85511 128.842 7.75C128.705 7.64205 128.495 7.55966 128.211 7.50284L127.078 7.27699C126.438 7.14915 125.963 6.92756 125.65 6.61222C125.34 6.29687 125.186 5.89489 125.186 5.40625C125.186 4.9858 125.299 4.62358 125.526 4.3196C125.757 4.01562 126.079 3.78125 126.494 3.61648C126.911 3.4517 127.4 3.36932 127.96 3.36932C128.786 3.36932 129.437 3.54403 129.911 3.89347C130.389 4.2429 130.667 4.71875 130.747 5.32102Z" fill="#3794FF"/>
</svg>
