<svg width="468" height="119" viewBox="0 0 468 119" fill="none" xmlns="http://www.w3.org/2000/svg">
<path d="M177.16 60.08C177.16 61.3 177.005 62.41 176.695 63.41C176.395 64.41 175.935 65.27 175.315 65.99C174.705 66.7 173.935 67.255 173.005 67.655C172.075 68.045 170.98 68.24 169.72 68.24C169.15 68.24 168.585 68.21 168.025 68.15C167.475 68.09 166.9 67.99 166.3 67.85L166.57 64.895C166.6 64.635 166.705 64.425 166.885 64.265C167.065 64.105 167.32 64.025 167.65 64.025C167.82 64.025 168.03 64.055 168.28 64.115C168.53 64.165 168.83 64.19 169.18 64.19C169.67 64.19 170.095 64.125 170.455 63.995C170.825 63.855 171.13 63.63 171.37 63.32C171.61 63 171.79 62.585 171.91 62.075C172.03 61.565 172.09 60.935 172.09 60.185V46.145H177.16V60.08ZM187.372 52.205C188.552 52.205 189.627 52.39 190.597 52.76C191.567 53.13 192.397 53.66 193.087 54.35C193.787 55.04 194.327 55.88 194.707 56.87C195.097 57.85 195.292 58.955 195.292 60.185C195.292 61.425 195.097 62.545 194.707 63.545C194.327 64.535 193.787 65.38 193.087 66.08C192.397 66.77 191.567 67.305 190.597 67.685C189.627 68.055 188.552 68.24 187.372 68.24C186.182 68.24 185.097 68.055 184.117 67.685C183.147 67.305 182.307 66.77 181.597 66.08C180.897 65.38 180.352 64.535 179.962 63.545C179.582 62.545 179.392 61.425 179.392 60.185C179.392 58.955 179.582 57.85 179.962 56.87C180.352 55.88 180.897 55.04 181.597 54.35C182.307 53.66 183.147 53.13 184.117 52.76C185.097 52.39 186.182 52.205 187.372 52.205ZM187.372 64.79C188.442 64.79 189.227 64.415 189.727 63.665C190.237 62.905 190.492 61.755 190.492 60.215C190.492 58.675 190.237 57.53 189.727 56.78C189.227 56.03 188.442 55.655 187.372 55.655C186.272 55.655 185.467 56.03 184.957 56.78C184.447 57.53 184.192 58.675 184.192 60.215C184.192 61.755 184.447 62.905 184.957 63.665C185.467 64.415 186.272 64.79 187.372 64.79ZM205.659 61.67C204.729 61.71 203.964 61.79 203.364 61.91C202.764 62.03 202.289 62.18 201.939 62.36C201.589 62.54 201.344 62.745 201.204 62.975C201.074 63.205 201.009 63.455 201.009 63.725C201.009 64.255 201.154 64.63 201.444 64.85C201.734 65.06 202.159 65.165 202.719 65.165C203.319 65.165 203.844 65.06 204.294 64.85C204.744 64.64 205.199 64.3 205.659 63.83V61.67ZM197.289 54.605C198.229 53.775 199.269 53.16 200.409 52.76C201.559 52.35 202.789 52.145 204.099 52.145C205.039 52.145 205.884 52.3 206.634 52.61C207.394 52.91 208.034 53.335 208.554 53.885C209.084 54.425 209.489 55.07 209.769 55.82C210.049 56.57 210.189 57.39 210.189 58.28V68H208.059C207.619 68 207.284 67.94 207.054 67.82C206.834 67.7 206.649 67.45 206.499 67.07L206.169 66.215C205.779 66.545 205.404 66.835 205.044 67.085C204.684 67.335 204.309 67.55 203.919 67.73C203.539 67.9 203.129 68.025 202.689 68.105C202.259 68.195 201.779 68.24 201.249 68.24C200.539 68.24 199.894 68.15 199.314 67.97C198.734 67.78 198.239 67.505 197.829 67.145C197.429 66.785 197.119 66.34 196.899 65.81C196.679 65.27 196.569 64.65 196.569 63.95C196.569 63.39 196.709 62.825 196.989 62.255C197.269 61.675 197.754 61.15 198.444 60.68C199.134 60.2 200.064 59.8 201.234 59.48C202.404 59.16 203.879 58.98 205.659 58.94V58.28C205.659 57.37 205.469 56.715 205.089 56.315C204.719 55.905 204.189 55.7 203.499 55.7C202.949 55.7 202.499 55.76 202.149 55.88C201.799 56 201.484 56.135 201.204 56.285C200.934 56.435 200.669 56.57 200.409 56.69C200.149 56.81 199.839 56.87 199.479 56.87C199.159 56.87 198.889 56.79 198.669 56.63C198.449 56.47 198.269 56.28 198.129 56.06L197.289 54.605ZM205.284 47.195C205.524 47.195 205.719 47.135 205.869 47.015C206.019 46.885 206.094 46.615 206.094 46.205H208.914C208.914 46.835 208.824 47.405 208.644 47.915C208.474 48.415 208.234 48.845 207.924 49.205C207.614 49.555 207.249 49.825 206.829 50.015C206.409 50.205 205.954 50.3 205.464 50.3C205.094 50.3 204.749 50.245 204.429 50.135C204.109 50.015 203.809 49.885 203.529 49.745C203.259 49.605 203.009 49.48 202.779 49.37C202.559 49.25 202.364 49.19 202.194 49.19C201.954 49.19 201.764 49.26 201.624 49.4C201.484 49.53 201.414 49.8 201.414 50.21H198.564C198.564 49.58 198.654 49.015 198.834 48.515C199.014 48.005 199.259 47.57 199.569 47.21C199.879 46.85 200.244 46.575 200.664 46.385C201.084 46.185 201.534 46.085 202.014 46.085C202.384 46.085 202.729 46.145 203.049 46.265C203.379 46.375 203.679 46.5 203.949 46.64C204.219 46.78 204.464 46.91 204.684 47.03C204.914 47.14 205.114 47.195 205.284 47.195ZM220.331 52.205C221.511 52.205 222.586 52.39 223.556 52.76C224.526 53.13 225.356 53.66 226.046 54.35C226.746 55.04 227.286 55.88 227.666 56.87C228.056 57.85 228.251 58.955 228.251 60.185C228.251 61.425 228.056 62.545 227.666 63.545C227.286 64.535 226.746 65.38 226.046 66.08C225.356 66.77 224.526 67.305 223.556 67.685C222.586 68.055 221.511 68.24 220.331 68.24C219.141 68.24 218.056 68.055 217.076 67.685C216.106 67.305 215.266 66.77 214.556 66.08C213.856 65.38 213.311 64.535 212.921 63.545C212.541 62.545 212.351 61.425 212.351 60.185C212.351 58.955 212.541 57.85 212.921 56.87C213.311 55.88 213.856 55.04 214.556 54.35C215.266 53.66 216.106 53.13 217.076 52.76C218.056 52.39 219.141 52.205 220.331 52.205ZM220.331 64.79C221.401 64.79 222.186 64.415 222.686 63.665C223.196 62.905 223.451 61.755 223.451 60.215C223.451 58.675 223.196 57.53 222.686 56.78C222.186 56.03 221.401 55.655 220.331 55.655C219.231 55.655 218.426 56.03 217.916 56.78C217.406 57.53 217.151 58.675 217.151 60.215C217.151 61.755 217.406 62.905 217.916 63.665C218.426 64.415 219.231 64.79 220.331 64.79ZM248.576 56.675H256.346V65.9C255.226 66.72 254.031 67.315 252.761 67.685C251.501 68.055 250.181 68.24 248.801 68.24C247.001 68.24 245.361 67.96 243.881 67.4C242.411 66.83 241.151 66.05 240.101 65.06C239.051 64.06 238.241 62.88 237.671 61.52C237.101 60.15 236.816 58.665 236.816 57.065C236.816 55.435 237.086 53.94 237.626 52.58C238.166 51.21 238.936 50.03 239.936 49.04C240.946 48.05 242.161 47.28 243.581 46.73C245.011 46.18 246.606 45.905 248.366 45.905C249.276 45.905 250.131 45.98 250.931 46.13C251.731 46.28 252.466 46.485 253.136 46.745C253.816 47.005 254.436 47.315 254.996 47.675C255.556 48.035 256.056 48.425 256.496 48.845L255.026 51.08C254.796 51.43 254.496 51.645 254.126 51.725C253.766 51.805 253.376 51.715 252.956 51.455C252.556 51.215 252.176 51.01 251.816 50.84C251.466 50.66 251.106 50.515 250.736 50.405C250.366 50.295 249.976 50.215 249.566 50.165C249.156 50.115 248.696 50.09 248.186 50.09C247.236 50.09 246.381 50.26 245.621 50.6C244.861 50.93 244.211 51.4 243.671 52.01C243.141 52.62 242.731 53.355 242.441 54.215C242.151 55.065 242.006 56.015 242.006 57.065C242.006 58.225 242.166 59.255 242.486 60.155C242.806 61.055 243.256 61.815 243.836 62.435C244.426 63.055 245.126 63.53 245.936 63.86C246.756 64.18 247.661 64.34 248.651 64.34C249.261 64.34 249.811 64.28 250.301 64.16C250.801 64.04 251.286 63.88 251.756 63.68V60.365H249.596C249.276 60.365 249.026 60.28 248.846 60.11C248.666 59.94 248.576 59.725 248.576 59.465V56.675ZM267.241 61.67C266.311 61.71 265.546 61.79 264.946 61.91C264.346 62.03 263.871 62.18 263.521 62.36C263.171 62.54 262.926 62.745 262.786 62.975C262.656 63.205 262.591 63.455 262.591 63.725C262.591 64.255 262.736 64.63 263.026 64.85C263.316 65.06 263.741 65.165 264.301 65.165C264.901 65.165 265.426 65.06 265.876 64.85C266.326 64.64 266.781 64.3 267.241 63.83V61.67ZM258.871 54.605C259.811 53.775 260.851 53.16 261.991 52.76C263.141 52.35 264.371 52.145 265.681 52.145C266.621 52.145 267.466 52.3 268.216 52.61C268.976 52.91 269.616 53.335 270.136 53.885C270.666 54.425 271.071 55.07 271.351 55.82C271.631 56.57 271.771 57.39 271.771 58.28V68H269.641C269.201 68 268.866 67.94 268.636 67.82C268.416 67.7 268.231 67.45 268.081 67.07L267.751 66.215C267.361 66.545 266.986 66.835 266.626 67.085C266.266 67.335 265.891 67.55 265.501 67.73C265.121 67.9 264.711 68.025 264.271 68.105C263.841 68.195 263.361 68.24 262.831 68.24C262.121 68.24 261.476 68.15 260.896 67.97C260.316 67.78 259.821 67.505 259.411 67.145C259.011 66.785 258.701 66.34 258.481 65.81C258.261 65.27 258.151 64.65 258.151 63.95C258.151 63.39 258.291 62.825 258.571 62.255C258.851 61.675 259.336 61.15 260.026 60.68C260.716 60.2 261.646 59.8 262.816 59.48C263.986 59.16 265.461 58.98 267.241 58.94V58.28C267.241 57.37 267.051 56.715 266.671 56.315C266.301 55.905 265.771 55.7 265.081 55.7C264.531 55.7 264.081 55.76 263.731 55.88C263.381 56 263.066 56.135 262.786 56.285C262.516 56.435 262.251 56.57 261.991 56.69C261.731 56.81 261.421 56.87 261.061 56.87C260.741 56.87 260.471 56.79 260.251 56.63C260.031 56.47 259.851 56.28 259.711 56.06L258.871 54.605ZM279.393 63.77C279.743 64.15 280.123 64.42 280.533 64.58C280.943 64.74 281.358 64.82 281.778 64.82C282.218 64.82 282.623 64.74 282.993 64.58C283.363 64.41 283.678 64.14 283.938 63.77C284.208 63.39 284.418 62.895 284.568 62.285C284.718 61.665 284.793 60.905 284.793 60.005C284.793 59.225 284.733 58.565 284.613 58.025C284.503 57.475 284.333 57.03 284.103 56.69C283.883 56.34 283.603 56.09 283.263 55.94C282.933 55.78 282.553 55.7 282.123 55.7C281.553 55.7 281.058 55.825 280.638 56.075C280.218 56.325 279.803 56.69 279.393 57.17V63.77ZM279.393 54.095C279.993 53.525 280.648 53.07 281.358 52.73C282.078 52.38 282.878 52.205 283.758 52.205C284.638 52.205 285.438 52.385 286.158 52.745C286.878 53.105 287.493 53.62 288.003 54.29C288.513 54.95 288.903 55.75 289.173 56.69C289.453 57.63 289.593 58.68 289.593 59.84C289.593 61.1 289.433 62.245 289.113 63.275C288.793 64.305 288.338 65.19 287.748 65.93C287.168 66.66 286.473 67.23 285.663 67.64C284.853 68.04 283.958 68.24 282.978 68.24C282.508 68.24 282.088 68.195 281.718 68.105C281.348 68.015 281.008 67.89 280.698 67.73C280.388 67.56 280.103 67.36 279.843 67.13C279.593 66.9 279.348 66.65 279.108 66.38L278.943 67.16C278.863 67.48 278.733 67.7 278.553 67.82C278.373 67.94 278.133 68 277.833 68H274.743V45.545H279.393V54.095ZM296.32 54.845C296.8 54.005 297.35 53.345 297.97 52.865C298.6 52.385 299.32 52.145 300.13 52.145C300.83 52.145 301.4 52.31 301.84 52.64L301.54 56.06C301.49 56.28 301.405 56.43 301.285 56.51C301.175 56.59 301.02 56.63 300.82 56.63C300.74 56.63 300.635 56.625 300.505 56.615C300.375 56.605 300.24 56.595 300.1 56.585C299.96 56.565 299.815 56.55 299.665 56.54C299.525 56.52 299.395 56.51 299.275 56.51C298.595 56.51 298.05 56.69 297.64 57.05C297.24 57.41 296.9 57.91 296.62 58.55V68H291.97V52.445H294.73C294.96 52.445 295.15 52.465 295.3 52.505C295.46 52.545 295.59 52.61 295.69 52.7C295.8 52.78 295.88 52.89 295.93 53.03C295.99 53.17 296.04 53.34 296.08 53.54L296.32 54.845ZM308.18 52.445V68H303.53V52.445H308.18ZM308.66 48.185C308.66 48.555 308.585 48.905 308.435 49.235C308.285 49.555 308.08 49.84 307.82 50.09C307.56 50.33 307.255 50.525 306.905 50.675C306.565 50.815 306.2 50.885 305.81 50.885C305.43 50.885 305.075 50.815 304.745 50.675C304.415 50.525 304.12 50.33 303.86 50.09C303.61 49.84 303.41 49.555 303.26 49.235C303.12 48.905 303.05 48.555 303.05 48.185C303.05 47.805 303.12 47.45 303.26 47.12C303.41 46.79 303.61 46.5 303.86 46.25C304.12 46 304.415 45.805 304.745 45.665C305.075 45.525 305.43 45.455 305.81 45.455C306.2 45.455 306.565 45.525 306.905 45.665C307.255 45.805 307.56 46 307.82 46.25C308.08 46.5 308.285 46.79 308.435 47.12C308.585 47.45 308.66 47.805 308.66 48.185ZM321.098 58.355C321.098 57.985 321.048 57.625 320.948 57.275C320.858 56.925 320.703 56.615 320.483 56.345C320.273 56.065 319.993 55.84 319.643 55.67C319.293 55.5 318.868 55.415 318.368 55.415C317.488 55.415 316.798 55.67 316.298 56.18C315.798 56.68 315.468 57.405 315.308 58.355H321.098ZM315.248 61.055C315.398 62.355 315.793 63.3 316.433 63.89C317.073 64.47 317.898 64.76 318.908 64.76C319.448 64.76 319.913 64.695 320.303 64.565C320.693 64.435 321.038 64.29 321.338 64.13C321.648 63.97 321.928 63.825 322.178 63.695C322.438 63.565 322.708 63.5 322.988 63.5C323.358 63.5 323.638 63.635 323.828 63.905L325.178 65.57C324.698 66.12 324.178 66.57 323.618 66.92C323.068 67.26 322.498 67.53 321.908 67.73C321.328 67.92 320.743 68.05 320.153 68.12C319.573 68.2 319.018 68.24 318.488 68.24C317.398 68.24 316.373 68.065 315.413 67.715C314.463 67.355 313.628 66.825 312.908 66.125C312.198 65.425 311.633 64.555 311.213 63.515C310.803 62.475 310.598 61.265 310.598 59.885C310.598 58.845 310.773 57.86 311.123 56.93C311.483 56 311.993 55.185 312.653 54.485C313.323 53.785 314.128 53.23 315.068 52.82C316.018 52.41 317.088 52.205 318.278 52.205C319.308 52.205 320.248 52.365 321.098 52.685C321.958 53.005 322.693 53.47 323.303 54.08C323.923 54.69 324.403 55.44 324.743 56.33C325.093 57.21 325.268 58.21 325.268 59.33C325.268 59.68 325.253 59.965 325.223 60.185C325.193 60.405 325.138 60.58 325.058 60.71C324.978 60.84 324.868 60.93 324.728 60.98C324.598 61.03 324.428 61.055 324.218 61.055H315.248ZM332.245 45.545V68H327.595V45.545H332.245ZM351.766 56.615C351.416 56.225 351.036 55.955 350.626 55.805C350.216 55.645 349.786 55.565 349.336 55.565C348.906 55.565 348.511 55.65 348.151 55.82C347.791 55.99 347.476 56.265 347.206 56.645C346.946 57.015 346.741 57.5 346.591 58.1C346.441 58.7 346.366 59.425 346.366 60.275C346.366 61.095 346.426 61.785 346.546 62.345C346.666 62.905 346.831 63.36 347.041 63.71C347.261 64.05 347.521 64.295 347.821 64.445C348.121 64.595 348.456 64.67 348.826 64.67C349.166 64.67 349.471 64.64 349.741 64.58C350.021 64.51 350.276 64.415 350.506 64.295C350.736 64.175 350.951 64.025 351.151 63.845C351.361 63.655 351.566 63.44 351.766 63.2V56.615ZM356.416 45.545V68H353.536C352.956 68 352.576 67.74 352.396 67.22L352.036 66.035C351.726 66.365 351.401 66.665 351.061 66.935C350.721 67.205 350.351 67.44 349.951 67.64C349.561 67.83 349.136 67.975 348.676 68.075C348.226 68.185 347.736 68.24 347.206 68.24C346.396 68.24 345.646 68.06 344.956 67.7C344.266 67.34 343.671 66.82 343.171 66.14C342.671 65.46 342.276 64.63 341.986 63.65C341.706 62.66 341.566 61.535 341.566 60.275C341.566 59.115 341.726 58.04 342.046 57.05C342.366 56.05 342.816 55.19 343.396 54.47C343.986 53.74 344.691 53.17 345.511 52.76C346.331 52.35 347.236 52.145 348.226 52.145C349.036 52.145 349.716 52.26 350.266 52.49C350.816 52.72 351.316 53.03 351.766 53.42V45.545H356.416ZM369.232 58.355C369.232 57.985 369.182 57.625 369.082 57.275C368.992 56.925 368.837 56.615 368.617 56.345C368.407 56.065 368.127 55.84 367.777 55.67C367.427 55.5 367.002 55.415 366.502 55.415C365.622 55.415 364.932 55.67 364.432 56.18C363.932 56.68 363.602 57.405 363.442 58.355H369.232ZM363.382 61.055C363.532 62.355 363.927 63.3 364.567 63.89C365.207 64.47 366.032 64.76 367.042 64.76C367.582 64.76 368.047 64.695 368.437 64.565C368.827 64.435 369.172 64.29 369.472 64.13C369.782 63.97 370.062 63.825 370.312 63.695C370.572 63.565 370.842 63.5 371.122 63.5C371.492 63.5 371.772 63.635 371.962 63.905L373.312 65.57C372.832 66.12 372.312 66.57 371.752 66.92C371.202 67.26 370.632 67.53 370.042 67.73C369.462 67.92 368.877 68.05 368.287 68.12C367.707 68.2 367.152 68.24 366.622 68.24C365.532 68.24 364.507 68.065 363.547 67.715C362.597 67.355 361.762 66.825 361.042 66.125C360.332 65.425 359.767 64.555 359.347 63.515C358.937 62.475 358.732 61.265 358.732 59.885C358.732 58.845 358.907 57.86 359.257 56.93C359.617 56 360.127 55.185 360.787 54.485C361.457 53.785 362.262 53.23 363.202 52.82C364.152 52.41 365.222 52.205 366.412 52.205C367.442 52.205 368.382 52.365 369.232 52.685C370.092 53.005 370.827 53.47 371.437 54.08C372.057 54.69 372.537 55.44 372.877 56.33C373.227 57.21 373.402 58.21 373.402 59.33C373.402 59.68 373.387 59.965 373.357 60.185C373.327 60.405 373.272 60.58 373.192 60.71C373.112 60.84 373.002 60.93 372.862 60.98C372.732 61.03 372.562 61.055 372.352 61.055H363.382ZM407.783 46.145V68H403.313V55.43C403.313 55.14 403.318 54.825 403.328 54.485C403.348 54.145 403.378 53.8 403.418 53.45L397.613 64.685C397.433 65.035 397.188 65.3 396.878 65.48C396.578 65.66 396.233 65.75 395.843 65.75H395.153C394.763 65.75 394.413 65.66 394.103 65.48C393.803 65.3 393.563 65.035 393.383 64.685L387.578 53.42C387.608 53.78 387.633 54.135 387.653 54.485C387.673 54.825 387.683 55.14 387.683 55.43V68H383.213V46.145H387.083C387.303 46.145 387.493 46.15 387.653 46.16C387.823 46.17 387.973 46.2 388.103 46.25C388.233 46.3 388.348 46.38 388.448 46.49C388.558 46.59 388.663 46.735 388.763 46.925L394.388 58.01C394.588 58.39 394.778 58.785 394.958 59.195C395.148 59.605 395.328 60.025 395.498 60.455C395.668 60.015 395.843 59.585 396.023 59.165C396.213 58.745 396.413 58.345 396.623 57.965L402.233 46.925C402.333 46.735 402.433 46.59 402.533 46.49C402.643 46.38 402.763 46.3 402.893 46.25C403.023 46.2 403.168 46.17 403.328 46.16C403.498 46.15 403.693 46.145 403.913 46.145H407.783ZM419.174 61.67C418.244 61.71 417.479 61.79 416.879 61.91C416.279 62.03 415.804 62.18 415.454 62.36C415.104 62.54 414.859 62.745 414.719 62.975C414.589 63.205 414.524 63.455 414.524 63.725C414.524 64.255 414.669 64.63 414.959 64.85C415.249 65.06 415.674 65.165 416.234 65.165C416.834 65.165 417.359 65.06 417.809 64.85C418.259 64.64 418.714 64.3 419.174 63.83V61.67ZM410.804 54.605C411.744 53.775 412.784 53.16 413.924 52.76C415.074 52.35 416.304 52.145 417.614 52.145C418.554 52.145 419.399 52.3 420.149 52.61C420.909 52.91 421.549 53.335 422.069 53.885C422.599 54.425 423.004 55.07 423.284 55.82C423.564 56.57 423.704 57.39 423.704 58.28V68H421.574C421.134 68 420.799 67.94 420.569 67.82C420.349 67.7 420.164 67.45 420.014 67.07L419.684 66.215C419.294 66.545 418.919 66.835 418.559 67.085C418.199 67.335 417.824 67.55 417.434 67.73C417.054 67.9 416.644 68.025 416.204 68.105C415.774 68.195 415.294 68.24 414.764 68.24C414.054 68.24 413.409 68.15 412.829 67.97C412.249 67.78 411.754 67.505 411.344 67.145C410.944 66.785 410.634 66.34 410.414 65.81C410.194 65.27 410.084 64.65 410.084 63.95C410.084 63.39 410.224 62.825 410.504 62.255C410.784 61.675 411.269 61.15 411.959 60.68C412.649 60.2 413.579 59.8 414.749 59.48C415.919 59.16 417.394 58.98 419.174 58.94V58.28C419.174 57.37 418.984 56.715 418.604 56.315C418.234 55.905 417.704 55.7 417.014 55.7C416.464 55.7 416.014 55.76 415.664 55.88C415.314 56 414.999 56.135 414.719 56.285C414.449 56.435 414.184 56.57 413.924 56.69C413.664 56.81 413.354 56.87 412.994 56.87C412.674 56.87 412.404 56.79 412.184 56.63C411.964 56.47 411.784 56.28 411.644 56.06L410.804 54.605ZM432.007 68.24C431.267 68.24 430.612 68.135 430.042 67.925C429.482 67.705 429.007 67.4 428.617 67.01C428.237 66.61 427.947 66.13 427.747 65.57C427.547 65.01 427.447 64.385 427.447 63.695V55.655H426.127C425.887 55.655 425.682 55.58 425.512 55.43C425.342 55.27 425.257 55.04 425.257 54.74V52.925L427.732 52.445L428.647 48.65C428.767 48.17 429.107 47.93 429.667 47.93H432.097V52.475H435.952V55.655H432.097V63.38C432.097 63.74 432.182 64.04 432.352 64.28C432.532 64.51 432.787 64.625 433.117 64.625C433.287 64.625 433.427 64.61 433.537 64.58C433.657 64.54 433.757 64.5 433.837 64.46C433.927 64.41 434.007 64.37 434.077 64.34C434.157 64.3 434.247 64.28 434.347 64.28C434.487 64.28 434.597 64.315 434.677 64.385C434.767 64.445 434.857 64.545 434.947 64.685L436.357 66.89C435.757 67.34 435.082 67.68 434.332 67.91C433.582 68.13 432.807 68.24 432.007 68.24ZM444.979 52.205C446.159 52.205 447.234 52.39 448.204 52.76C449.174 53.13 450.004 53.66 450.694 54.35C451.394 55.04 451.934 55.88 452.314 56.87C452.704 57.85 452.899 58.955 452.899 60.185C452.899 61.425 452.704 62.545 452.314 63.545C451.934 64.535 451.394 65.38 450.694 66.08C450.004 66.77 449.174 67.305 448.204 67.685C447.234 68.055 446.159 68.24 444.979 68.24C443.789 68.24 442.704 68.055 441.724 67.685C440.754 67.305 439.914 66.77 439.204 66.08C438.504 65.38 437.959 64.535 437.569 63.545C437.189 62.545 436.999 61.425 436.999 60.185C436.999 58.955 437.189 57.85 437.569 56.87C437.959 55.88 438.504 55.04 439.204 54.35C439.914 53.66 440.754 53.13 441.724 52.76C442.704 52.39 443.789 52.205 444.979 52.205ZM444.979 64.79C446.049 64.79 446.834 64.415 447.334 63.665C447.844 62.905 448.099 61.755 448.099 60.215C448.099 58.675 447.844 57.53 447.334 56.78C446.834 56.03 446.049 55.655 444.979 55.655C443.879 55.655 443.074 56.03 442.564 56.78C442.054 57.53 441.799 58.675 441.799 60.215C441.799 61.755 442.054 62.905 442.564 63.665C443.074 64.415 443.879 64.79 444.979 64.79ZM465.126 55.85C465.006 56.04 464.876 56.175 464.736 56.255C464.606 56.335 464.436 56.375 464.226 56.375C464.006 56.375 463.786 56.33 463.566 56.24C463.346 56.14 463.106 56.035 462.846 55.925C462.596 55.815 462.311 55.715 461.991 55.625C461.671 55.525 461.306 55.475 460.896 55.475C460.306 55.475 459.851 55.59 459.531 55.82C459.221 56.04 459.066 56.35 459.066 56.75C459.066 57.04 459.166 57.28 459.366 57.47C459.576 57.66 459.851 57.83 460.191 57.98C460.531 58.12 460.916 58.255 461.346 58.385C461.776 58.515 462.216 58.66 462.666 58.82C463.116 58.98 463.556 59.17 463.986 59.39C464.416 59.6 464.801 59.865 465.141 60.185C465.481 60.495 465.751 60.875 465.951 61.325C466.161 61.775 466.266 62.315 466.266 62.945C466.266 63.715 466.126 64.425 465.846 65.075C465.566 65.725 465.146 66.285 464.586 66.755C464.036 67.225 463.351 67.59 462.531 67.85C461.721 68.11 460.786 68.24 459.726 68.24C459.196 68.24 458.666 68.19 458.136 68.09C457.606 67.99 457.091 67.855 456.591 67.685C456.101 67.515 455.646 67.315 455.226 67.085C454.806 66.845 454.446 66.59 454.146 66.32L455.226 64.61C455.346 64.41 455.496 64.255 455.676 64.145C455.866 64.025 456.106 63.965 456.396 63.965C456.666 63.965 456.906 64.025 457.116 64.145C457.336 64.265 457.571 64.395 457.821 64.535C458.071 64.675 458.361 64.805 458.691 64.925C459.031 65.045 459.456 65.105 459.966 65.105C460.326 65.105 460.631 65.07 460.881 65C461.131 64.92 461.331 64.815 461.481 64.685C461.631 64.555 461.741 64.41 461.811 64.25C461.881 64.09 461.916 63.925 461.916 63.755C461.916 63.445 461.811 63.19 461.601 62.99C461.391 62.79 461.116 62.62 460.776 62.48C460.436 62.33 460.046 62.195 459.606 62.075C459.176 61.945 458.736 61.8 458.286 61.64C457.836 61.48 457.391 61.29 456.951 61.07C456.521 60.84 456.136 60.555 455.796 60.215C455.456 59.865 455.181 59.44 454.971 58.94C454.761 58.44 454.656 57.835 454.656 57.125C454.656 56.465 454.781 55.84 455.031 55.25C455.291 54.65 455.676 54.125 456.186 53.675C456.696 53.225 457.336 52.87 458.106 52.61C458.876 52.34 459.776 52.205 460.806 52.205C461.366 52.205 461.906 52.255 462.426 52.355C462.956 52.455 463.451 52.595 463.911 52.775C464.371 52.955 464.791 53.17 465.171 53.42C465.551 53.66 465.886 53.925 466.176 54.215L465.126 55.85Z" fill="#45A5A5"/>
<path d="M12.6561 70.3856H35.6844L36.636 74.3346H12.6561V70.3856Z" fill="#8EDAD5"/>
<path d="M12.6561 47.7378L35.2848 47.8806L36.4457 43.9315H12.6561V47.7378Z" fill="#8EDAD5"/>
<path d="M61.3772 94.1752C29.4991 80.3772 30.9265 36.6043 61.3772 23.7579L61.3772 19C48.6112 24.0736 40.3027 33.4145 36.3834 44.0742C35.923 45.3264 35.5232 46.5968 35.1838 47.8806C34.3887 50.8883 33.9255 53.9698 33.7926 57.0634C33.7335 58.4394 33.7398 59.8178 33.8113 61.1933C33.9725 64.2932 34.4651 67.378 35.2878 70.3856C35.6391 71.67 36.0506 72.9404 36.5221 74.1919C40.5175 84.7951 48.8251 94.0423 61.3772 99L61.3772 94.1752Z" fill="#56C6BC"/>
<path d="M0 57.0634V61.2123H33.7812V57.0634H0Z" fill="#56C6BC"/>
<path d="M136.267 47.6144H113.239L112.287 43.6654H136.267V47.6144Z" fill="#8EDAD5"/>
<path d="M136.267 70.2622L113.638 70.1194L112.477 74.0685H136.267V70.2622Z" fill="#8EDAD5"/>
<path d="M87.5458 23.8248C119.424 37.6228 117.996 81.3957 87.5458 94.2421L87.5458 99C100.312 93.9264 108.62 84.5855 112.54 73.9258C113 72.6736 113.4 71.4032 113.739 70.1194C114.534 67.1117 114.998 64.0302 115.13 60.9366C115.189 59.5606 115.183 58.1822 115.112 56.8067C114.95 53.7068 114.458 50.622 113.635 47.6144C113.284 46.33 112.872 45.0596 112.401 43.8081C108.405 33.2049 100.098 23.9577 87.5458 19L87.5458 23.8248Z" fill="#56C6BC"/>
<path d="M148.923 60.9366V56.7877H115.142V60.9366H148.923Z" fill="#56C6BC"/>
<path fill-rule="evenodd" clip-rule="evenodd" d="M80.4873 38.2695C75.6839 38.8524 75.6167 38.8863 75.6167 40.7309C75.6167 42.4274 75.649 42.4525 77.283 42.0383C80.4539 41.2344 83.3076 41.0719 83.3004 41.6948C83.2855 43.0765 76.5103 68.2234 75.2912 71.4246C73.7147 75.5625 70.801 78.9442 68.8118 78.9442C65.6347 78.9442 64.2412 73.4113 66.3683 69.2421C67.6429 66.7437 70.2022 64.168 71.811 63.764C72.7405 63.5307 73.0533 63.1052 73.0533 62.0726C73.0533 56.9104 66.5611 60.0639 63.5983 66.6648C60.7554 73.0001 61.3999 77.6804 65.427 79.9439C69.4316 82.1946 74.1704 80.191 77.6782 74.7637C80.5057 70.3889 81.5183 67.3779 84.3765 54.8478C85.7598 48.7853 87.0118 43.3057 87.1594 42.6715C87.3927 41.6697 87.7567 41.5179 89.9269 41.5179C91.7864 41.5179 92.5098 41.2995 92.7539 40.6633C93.2466 39.3795 92.497 38.9447 88.8923 38.4238C85.6342 37.9527 83.4301 37.9122 80.4873 38.2695Z" fill="#45A5A5"/>
</svg>
